<svg xmlns="http://www.w3.org/2000/svg" width="100%" height="100%" viewBox="0 0 100 100">
    <path d="M50 4.166c25.296 0 45.834 20.537 45.834 45.834S75.296 95.833 50 95.833 4.166 75.296 4.166 50 24.704 4.166 50 4.166zm0 8.39c-20.665 0-37.443 16.778-37.443 37.443S29.335 87.443 50 87.443 87.443 70.665 87.443 50 70.665 12.556 50 12.556z"/>
    <g transform="matrix(.125 0 0 .125 0 -.625)">
        <path d="M400 326.333c-18.286 0-33.333 15.048-33.333 33.334v200C366.667 577.953 381.714 593 400 593s33.333-15.047 33.333-33.333v-200c0-18.286-15.047-33.334-33.333-33.334z"/>
        <circle cx="400" cy="252.333" r="33.333"/>
    </g>
</svg>
