<svg xmlns="http://www.w3.org/2000/svg" width="100%" height="100%" viewBox="0 0 800 800" fill-rule="evenodd" stroke-linejoin="round" stroke-miterlimit="2">
    <path d="M400 33.333C198.853 33.333 33.333 198.853 33.333 400S198.853 766.667 400 766.667 766.667 601.147 766.667 400l.003-1.67c0-200.234-164.766-365-365-365l-1.67.003zM400 700c-164.575 0-300-135.425-300-300s135.425-300 300-300 300 135.425 300 300c-.905 164.231-135.769 299.095-300 300zm0-366.667c-18.286 0-33.333 15.048-33.333 33.334v200C366.667 584.953 381.714 600 400 600s33.333-15.047 33.333-33.333v-200c0-18.286-15.047-33.334-33.333-33.334z" fill-rule="nonzero"/>
    <circle cx="400" cy="233.333" r="33.333"/>
</svg>
