<svg xmlns="http://www.w3.org/2000/svg" width="60" height="60" viewBox="0 0 60 60">
    <path fill="#ffffff" d="M30 33.639V20.845c-7.992-.324-12.212-2.954-22.446-3.931-3.188-.304-4.286.032-4.992.028-1.084-.007.158 18.378 1.529 19.721 4.535 4.444 13.582 6.55 13.582 6.55 2.522-2.119 10.579-8.313 10.579-8.313s1.054-1.224 1.748-1.261zm-5.056-6.925c-.22 1.687-1.972 4.259-5.496 3.588-4.91-.936-7.301-4.794-5.011-6.936M30 33.639V20.845c7.992-.324 12.212-2.954 22.446-3.931 3.188-.304 4.286.032 4.992.028 1.084-.007-.158 18.378-1.529 19.721-4.535 4.444-13.582 6.55-13.582 6.55-2.522-2.119-10.579-8.313-10.579-8.313S30.694 33.676 30 33.639zm5.056-6.925c.22 1.687 1.972 4.259 5.496 3.588 4.91-.936 7.301-4.794 5.011-6.936"/>
</svg>
