<svg xmlns="http://www.w3.org/2000/svg" width="100" height="100" viewBox="0 0 100 100">
    <circle fill="#ae1f00" cx="50" cy="50" r="50"/>
    <path fill="#ffffff" d="M50.1 38.401c-11.031-.446-16.954-4.08-31.079-5.429-4.4-.42-5.915.043-6.889.037-1.496-.009.218 25.365 2.11 27.218 6.26 6.133 18.746 9.041 18.746 9.041 3.48-2.925 14.6-11.473 14.6-11.473s1.554-1.701 2.512-1.752m-7.077-9.547c-.305 2.329-2.722 5.879-7.585 4.952-6.777-1.291-10.077-6.616-6.916-9.573"/>
    <path fill="#ffe9b3" d="M49.9 38.401c11.031-.446 16.954-4.08 31.079-5.429 4.4-.42 5.915.043 6.889.037 1.496-.009-.218 25.365-2.11 27.218-6.26 6.133-18.746 9.041-18.746 9.041-3.48-2.925-14.6-11.473-14.6-11.473s-1.554-1.701-2.512-1.752m7.077-9.547c.305 2.329 2.722 5.879 7.585 4.952 6.777-1.291 10.077-6.616 6.916-9.573"/>
</svg>
